<svg xmlns="http://www.w3.org/2000/svg" xmlns:xlink="http://www.w3.org/1999/xlink" viewBox="0,0,256,256" width="100px" height="100px"><g fill="#ffffff" fill-rule="nonzero" stroke="none" stroke-width="1" stroke-linecap="butt" stroke-linejoin="miter" stroke-miterlimit="10" stroke-dasharray="" stroke-dashoffset="0" font-family="none" font-weight="none" font-size="none" text-anchor="none" style="mix-blend-mode: normal"><g transform="scale(2.56,2.56)"><path d="M50,22c-12.25012,0 -21.62548,0.47911 -28.74414,1.14453c-4.97218,0.46391 -8.97098,4.24176 -9.81445,9.15234c-0.84637,4.92151 -1.44141,10.82644 -1.44141,17.70313c0,6.87668 0.59413,12.78276 1.43945,17.70508h0.00195c0.84452,4.91031 4.84255,8.68541 9.81445,9.15039c7.11947,0.66441 16.49402,1.14453 28.74414,1.14453c12.25012,0 21.62548,-0.47911 28.74414,-1.14453c4.97218,-0.46391 8.97098,-4.24176 9.81445,-9.15234c0.84637,-4.92151 1.44141,-10.82644 1.44141,-17.70312c0,-6.87668 -0.59413,-12.78276 -1.43945,-17.70508h-0.00195c-0.84448,-4.91031 -4.84255,-8.68541 -9.81445,-9.15039c-7.11952,-0.66441 -16.49402,-1.14453 -28.74414,-1.14453zM50,24c12.19788,0 21.51211,0.47717 28.55859,1.13477c4.0741,0.38102 7.33382,3.45631 8.0293,7.5c0.82667,4.81368 1.41211,10.60392 1.41211,17.36523c0,6.76132 -0.58448,12.55274 -1.41211,17.36523c-0.69452,4.04342 -3.95547,7.11796 -8.0293,7.49805c-7.04534,0.65857 -16.36072,1.13672 -28.55859,1.13672c-12.19788,0 -21.51211,-0.47717 -28.55859,-1.13477c-4.0741,-0.38102 -7.33382,-3.45631 -8.0293,-7.5c-0.82667,-4.81368 -1.41211,-10.60392 -1.41211,-17.36523c0,-6.76132 0.58448,-12.55274 1.41211,-17.36523c0.69453,-4.04342 3.95547,-7.11796 8.0293,-7.49805c7.04534,-0.65857 16.36072,-1.13672 28.55859,-1.13672zM50,27c-10.45842,0 -19.71014,0.35878 -27.54492,1.06055c-0.17795,0.01603 -0.33383,0.12578 -0.40892,0.28791c-0.07508,0.16213 -0.05796,0.35201 0.04493,0.49809c0.10288,0.14608 0.27589,0.22617 0.45384,0.2101c7.79522,-0.69823 17.0195,-1.05664 27.45508,-1.05664c5.51178,0 10.67598,0.10214 15.48047,0.29883c0.18397,0.01658 0.36209,-0.0696 0.46326,-0.22414c0.10117,-0.15454 0.10891,-0.35227 0.02013,-0.51424c-0.08878,-0.16198 -0.25963,-0.26182 -0.44433,-0.25966c-4.81951,-0.19731 -9.99531,-0.30078 -15.51953,-0.30078zM68.47461,27.4375c-0.2632,0.01689 -0.46803,0.23529 -0.46803,0.49902c0,0.26374 0.20483,0.48213 0.46803,0.49902c1.71752,0.08782 3.37635,0.19186 4.99023,0.30664c0.2756,0.01942 0.51476,-0.18826 0.53418,-0.46387c0.01942,-0.2756 -0.18826,-0.51476 -0.46387,-0.53418c-1.62011,-0.11522 -3.28529,-0.21846 -5.00977,-0.30664c-0.01692,-0.00086 -0.03387,-0.00086 -0.05078,0zM76.44141,27.97461c-0.26988,0.01272 -0.48091,0.23742 -0.47669,0.50757c0.00422,0.27015 0.22217,0.48814 0.49231,0.49243c0.335,0.02834 0.67762,0.05353 0.99805,0.08203c0.17795,0.01607 0.35095,-0.06402 0.45384,-0.2101c0.10288,-0.14608 0.12001,-0.33595 0.04493,-0.49809c-0.07508,-0.16213 -0.23096,-0.27189 -0.40892,-0.28791c-0.33157,-0.0295 -0.67495,-0.05437 -1.00195,-0.08203c-0.01685,-0.00216 -0.0338,-0.00347 -0.05078,-0.00391c-0.01692,-0.00086 -0.03387,-0.00086 -0.05078,0zM42.51172,38c-0.13462,-0.00314 -0.26482,0.04814 -0.36114,0.14225c-0.09632,0.09411 -0.1506,0.22309 -0.15058,0.35775v23c-0.00018,0.17872 0.09505,0.34395 0.24977,0.43341c0.15473,0.08945 0.34543,0.08952 0.50023,0.00019l20,-11.5c0.15524,-0.08918 0.25096,-0.25456 0.25096,-0.43359c0,-0.17904 -0.09572,-0.34441 -0.25096,-0.43359l-20,-11.5c-0.07261,-0.04174 -0.15455,-0.06458 -0.23828,-0.06641zM43,39.36523l18.49609,10.63477l-18.49609,10.63477z"></path></g></g></svg>